<svg xmlns="http://www.w3.org/2000/svg" xml:lang="en" height="708.6999999999999pt" width="457.59999999999997pt" viewBox="-196.40000000000003 -2.0 457.59999999999997 708.6999999999999"><polygon points="76.95,40.5 77.27128576765485,40.497451085395966 77.59249065333586,40.489804983259496 77.91353379543078,40.4770636184559 78.23433437304543,40.45923019855565 78.55481162634996,40.43630921302683 78.8748848769097,40.40830643210496 79.19447354799547,40.37522890534039 79.51349718486841,40.3370849598236 79.83187547503401,40.29388419808888 80.14952826846033,40.245637495696975 80.46637559775533,40.1923569984972 80.7823376982983,40.134056119569806 81.0973350283201,40.07074953584926 81.41128828892745,40.002453184429484 81.72411844406591,39.929184258551714 82.03574674041685,39.850961203276206 82.3460947272232,39.76780371083882 82.65508427603895,39.67973271569356 82.96263760039756,39.58677038924249 83.26867727539437,39.48894013425414 83.57312625717779,39.386266578972034 83.87590790234479,39.27877557091464 84.1769459872354,39.16649417036841 84.47616472712164,39.04945064357546 84.77348879528584,38.92767445561777 85.06884334198392,38.80119626299941 85.36215401328819,38.670047905928996 85.65334696980572,38.53426240030407 85.94234890526693,38.39387392939955 86.22908706498006,38.2489178352622 86.51348926414683,38.09943060981353 86.79548390603449,37.94544988566314 87.075,37.78701442663487 87.35196717936148,37.624164118008274 87.62631571911268,37.456939956477655 87.89797655347586,37.28538403983141 88.16688129328872,37.10953955635411 88.43296224322111,36.9294507739541 88.69615241881677,36.74516302901929 88.95638556335646,36.55672271500393 89.21359616453775,36.364177270749344 89.46771947096725,36.16757516854145 89.71869150846157,35.96696590190807 89.96644909615242,35.7623999731593 90.21092986239202,35.55392888067372 90.4520722604549,35.34160510593402 90.68981558403193,35.12548210031504 90.92409998251277,34.90561427162766 91.154866476053,34.68205697042196 91.38205697042197,34.454866476053 91.60561427162766,34.22409998251276 91.82548210031504,33.989815584031916 92.04160510593404,33.7520722604549 92.25392888067373,33.51092986239202 92.46239997315931,33.266449096152414 92.66696590190807,33.01869150846157 92.86757516854145,32.76771947096725 93.06417727074935,32.513596164537745 93.25672271500395,32.25638556335647 93.4451630290193,31.99615241881676 93.62945077395412,31.732962243221102 93.80953955635412,31.466881293288726 93.98538403983142,31.197976553475847 94.15693995647766,30.926315719112665 94.32416411800828,30.65196717936147 94.48701442663489,30.374999999999993 94.64544988566314,30.095483906034485 94.79943060981354,29.81348926414682 94.9489178352622,29.529087064980057 95.09387392939955,29.24234890526692 95.23426240030408,28.953346969805718 95.370047905929,28.662154013288195 95.5011962629994,28.368843341983922 95.62767445561776,28.073488795285847 95.74945064357546,27.77616472712163 95.8664941703684,27.4769459872354 95.97877557091464,27.17590790234479 96.08626657897203,26.87312625717778 96.18894013425414,26.56867727539436 96.2867703892425,26.26263760039756 96.37973271569358,25.955084276038942 96.46780371083882,25.6460947272232 96.55096120327622,25.335746740416848 96.62918425855172,25.024118444065895 96.70245318442949,24.71128828892744 96.77074953584926,24.397335028320104 96.83405611956981,24.0823376982983 96.89235699849722,23.76637559775533 96.94563749569699,23.449528268460327 96.99388419808889,23.13187547503402 97.0370849598236,22.813497184868417 97.0752289053404,22.49447354799547 97.10830643210497,22.174884876909694 97.13630921302683,21.85481162634996 97.15923019855565,21.534334373045425 97.1770636184559,21.213533795430774 97.18980498325949,20.892490653335862 97.19745108539595,20.571285767654853 97.19999999999999,20.249999999999996 97.19999999999999,20.250000000000004 97.19745108539595,19.928714232345143 97.18980498325949,19.60750934666413 97.1770636184559,19.286466204569223 97.15923019855565,18.96566562695457 97.13630921302683,18.645188373650036 97.10830643210497,18.325115123090303 97.0752289053404,18.00552645200453 97.0370849598236,17.686502815131583 96.99388419808888,17.368124524965978 96.94563749569697,17.050471731539666 96.89235699849722,16.733624402244665 96.83405611956981,16.417662301701696 96.77074953584926,16.102664971679893 96.70245318442949,15.788711711072555 96.62918425855172,15.475881555934102 96.55096120327622,15.164253259583148 96.46780371083882,14.853905272776796 96.37973271569358,14.54491572396105 96.2867703892425,14.237362399602437 96.18894013425414,13.93132272460564 96.08626657897203,13.626873742822214 95.97877557091464,13.324092097655212 95.8664941703684,13.023054012764598 95.74945064357546,12.72383527287837 95.62767445561776,12.426511204714147 95.5011962629994,12.131156658016074 95.370047905929,11.837845986711802 95.23426240030408,11.546653030194278 95.09387392939955,11.257651094733077 94.9489178352622,10.970912935019943 94.79943060981354,10.686510735853178 94.64544988566314,10.404516093965512 94.48701442663487,10.125000000000004 94.32416411800828,9.848032820638526 94.15693995647766,9.573684280887328 93.98538403983142,9.302023446524153 93.80953955635411,9.03311870671127 93.62945077395412,8.767037756778896 93.4451630290193,8.50384758118324 93.25672271500395,8.243614436643535 93.06417727074935,7.986403835462252 92.86757516854145,7.732280529032749 92.66696590190807,7.481308491538423 92.46239997315931,7.233550903847584 92.25392888067373,6.989070137607979 92.04160510593404,6.747927739545099 91.82548210031504,6.510184415968076 91.60561427162766,6.275900017487235 91.38205697042197,6.0451335239469985 91.154866476053,5.817943029578029 90.92409998251277,5.594385728372332 90.68981558403193,5.374517899684953 90.4520722604549,5.158394894065972 90.21092986239202,4.946071119326274 89.96644909615242,4.737600026840699 89.71869150846157,4.533034098091928 89.46771947096725,4.332424831458556 89.21359616453775,4.135822729250653 88.95638556335646,3.9432772849960687 88.69615241881675,3.754836970980704 88.43296224322111,3.570549226045892 88.16688129328872,3.3904604436458814 87.89797655347586,3.214615960168585 87.62631571911267,3.0430600435223383 87.35196717936148,2.8758358819917187 87.075,2.712985573365119 86.79548390603449,2.55455011433686 86.51348926414683,2.4005693901864675 86.22908706498006,2.251082164737804 85.94234890526693,2.106126070600451 85.65334696980572,1.9657375996959239 85.36215401328819,1.8299520940710068 85.06884334198392,1.698803737000593 84.77348879528584,1.5723255443822304 84.47616472712164,1.4505493564245322 84.1769459872354,1.3335058296315925 83.87590790234479,1.2212244290853598 83.57312625717779,1.1137334210279677 83.26867727539437,1.0110598657458572 82.96263760039756,0.9132296107575081 82.65508427603895,0.8202672843064331 82.3460947272232,0.7321962891611767 82.03574674041685,0.6490387967237891 81.72411844406591,0.5708157414482865 81.41128828892745,0.49754681557051045 81.0973350283201,0.42925046415073537 80.7823376982983,0.3659438804301932 80.46637559775533,0.3076430015027925 80.14952826846033,0.25436250430301743 79.83187547503401,0.20611580191111809 79.51349718486841,0.16291504017639794 79.19447354799547,0.1247710946596094 78.8748848769097,0.09169356789503977 78.55481162634996,0.0636907869731694 78.23433437304543,0.04076980144434419 77.91353379543078,0.0229363815440919 77.59249065333586,0.010195016740507023 77.27128576765485,0.0025489146040348133 76.95,3.597122599785507e-15 -76.95,3.597122599785507e-15 -77.27128576765485,0.0025489146040348133 -77.59249065333586,0.010195016740507023 -77.91353379543078,0.0229363815440919 -78.23433437304543,0.04076980144434419 -78.55481162634996,0.0636907869731694 -78.8748848769097,0.09169356789503977 -79.19447354799546,0.1247710946596094 -79.51349718486841,0.16291504017639794 -79.83187547503401,0.20611580191111448 -80.14952826846033,0.25436250430302104 -80.46637559775533,0.3076430015027925 -80.7823376982983,0.3659438804301932 -81.0973350283201,0.42925046415073537 -81.41128828892745,0.49754681557051045 -81.7241184440659,0.5708157414482865 -82.03574674041685,0.6490387967237891 -82.3460947272232,0.7321962891611767 -82.65508427603895,0.8202672843064331 -82.96263760039756,0.9132296107575081 -83.26867727539437,1.0110598657458572 -83.57312625717779,1.1137334210279677 -83.87590790234479,1.221224429085356 -84.1769459872354,1.3335058296315925 -84.47616472712163,1.4505493564245322 -84.77348879528584,1.5723255443822304 -85.06884334198392,1.698803737000593 -85.36215401328819,1.8299520940710068 -85.65334696980572,1.9657375996959239 -85.94234890526693,2.106126070600451 -86.22908706498006,2.251082164737804 -86.51348926414681,2.4005693901864675 -86.79548390603449,2.5545501143368563 -87.075,2.7129855733651227 -87.35196717936147,2.875835881991715 -87.62631571911267,3.0430600435223383 -87.89797655347586,3.214615960168585 -88.16688129328872,3.3904604436458814 -88.43296224322111,3.5705492260458884 -88.69615241881675,3.754836970980704 -88.95638556335646,3.943277284996065 -89.21359616453775,4.135822729250649 -89.46771947096725,4.332424831458559 -89.71869150846157,4.533034098091928 -89.96644909615242,4.737600026840699 -90.21092986239202,4.946071119326274 -90.4520722604549,5.158394894065968 -90.68981558403192,5.374517899684951 -90.92409998251277,5.594385728372329 -91.154866476053,5.817943029578034 -91.38205697042197,6.045133523947 -91.60561427162766,6.275900017487237 -91.82548210031504,6.510184415968076 -92.04160510593402,6.747927739545095 -92.25392888067373,6.989070137607977 -92.46239997315931,7.233550903847578 -92.66696590190807,7.4813084915384245 -92.86757516854145,7.732280529032742 -93.06417727074935,7.986403835462254 -93.25672271500395,8.243614436643535 -93.4451630290193,8.503847581183239 -93.6294507739541,8.767037756778892 -93.80953955635411,9.033118706711269 -93.98538403983142,9.30202344652415 -94.15693995647766,9.573684280887322 -94.32416411800828,9.848032820638526 -94.48701442663489,10.125000000000005 -94.64544988566314,10.404516093965512 -94.79943060981354,10.686510735853178 -94.9489178352622,10.97091293501994 -95.09387392939955,11.257651094733083 -95.23426240030408,11.546653030194275 -95.370047905929,11.837845986711805 -95.5011962629994,12.131156658016069 -95.62767445561776,12.426511204714147 -95.74945064357546,12.72383527287837 -95.8664941703684,13.023054012764597 -95.97877557091464,13.324092097655209 -96.08626657897203,13.62687374282221 -96.18894013425414,13.931322724605643 -96.2867703892425,14.23736239960243 -96.37973271569358,14.54491572396105 -96.46780371083882,14.853905272776794 -96.55096120327622,15.164253259583147 -96.62918425855172,15.4758815559341 -96.70245318442949,15.788711711072551 -96.77074953584926,16.102664971679896 -96.83405611956981,16.417662301701693 -96.89235699849722,16.733624402244665 -96.94563749569697,17.050471731539666 -96.99388419808888,17.368124524965978 -97.0370849598236,17.68650281513158 -97.0752289053404,18.005526452004528 -97.10830643210497,18.32511512309031 -97.13630921302683,18.645188373650033 -97.15923019855565,18.96566562695457 -97.1770636184559,19.286466204569223 -97.18980498325949,19.60750934666413 -97.19745108539595,19.92871423234514 -97.19999999999999,20.25 -97.19999999999999,20.25 -97.19745108539595,20.571285767654857 -97.18980498325949,20.892490653335866 -97.1770636184559,21.213533795430777 -97.15923019855565,21.534334373045436 -97.13630921302683,21.85481162634997 -97.10830643210497,22.1748848769097 -97.0752289053404,22.494473547995476 -97.0370849598236,22.813497184868424 -96.99388419808889,23.131875475034022 -96.94563749569699,23.449528268460334 -96.89235699849722,23.766375597755335 -96.83405611956981,24.08233769829831 -96.77074953584926,24.397335028320114 -96.70245318442949,24.711288288927452 -96.62918425855172,25.024118444065902 -96.55096120327622,25.33574674041685 -96.46780371083882,25.646094727223208 -96.37973271569358,25.955084276038946 -96.2867703892425,26.26263760039757 -96.18894013425414,26.568677275394368 -96.08626657897203,26.87312625717779 -95.97877557091464,27.175907902344793 -95.8664941703684,27.476945987235403 -95.74945064357546,27.776164727121632 -95.62767445561776,28.07348879528585 -95.5011962629994,28.368843341983933 -95.370047905929,28.662154013288202 -95.23426240030408,28.95334696980573 -95.09387392939955,29.242348905266926 -94.9489178352622,29.529087064980065 -94.79943060981354,29.813489264146824 -94.64544988566314,30.09548390603449 -94.48701442663487,30.375000000000007 -94.32416411800828,30.651967179361474 -94.15693995647766,30.926315719112676 -93.98538403983142,31.197976553475854 -93.80953955635412,31.466881293288733 -93.62945077395412,31.73296224322111 -93.4451630290193,31.996152418816763 -93.25672271500395,32.25638556335647 -93.06417727074935,32.51359616453775 -92.86757516854145,32.76771947096726 -92.66696590190807,33.01869150846158 -92.46239997315931,33.26644909615242 -92.25392888067373,33.51092986239202 -92.04160510593404,33.75207226045491 -91.82548210031504,33.98981558403192 -91.60561427162766,34.22409998251277 -91.38205697042196,34.45486647605301 -91.154866476053,34.68205697042198 -90.92409998251277,34.90561427162767 -90.68981558403193,35.12548210031505 -90.4520722604549,35.34160510593403 -90.21092986239202,35.55392888067372 -89.96644909615243,35.762399973159305 -89.71869150846157,35.966965901908075 -89.46771947096725,36.16757516854145 -89.21359616453775,36.36417727074935 -88.95638556335648,36.55672271500393 -88.69615241881677,36.745163029019295 -88.43296224322111,36.92945077395411 -88.16688129328874,37.10953955635412 -87.89797655347586,37.28538403983141 -87.62631571911268,37.45693995647766 -87.35196717936147,37.62416411800829 -87.075,37.78701442663488 -86.79548390603449,37.945449885663145 -86.51348926414683,38.09943060981353 -86.22908706498006,38.248917835262205 -85.94234890526693,38.393873929399554 -85.65334696980572,38.53426240030408 -85.36215401328819,38.670047905928996 -85.06884334198394,38.80119626299941 -84.77348879528584,38.92767445561777 -84.47616472712164,39.04945064357547 -84.1769459872354,39.166494170368416 -83.87590790234479,39.278775570914654 -83.57312625717779,39.38626657897204 -83.26867727539437,39.48894013425415 -82.96263760039757,39.5867703892425 -82.65508427603895,39.679732715693575 -82.34609472722322,39.76780371083883 -82.03574674041685,39.85096120327622 -81.7241184440659,39.92918425855172 -81.41128828892745,40.0024531844295 -81.0973350283201,40.070749535849274 -80.7823376982983,40.13405611956981 -80.46637559775533,40.19235699849722 -80.14952826846034,40.24563749569699 -79.83187547503402,40.29388419808889 -79.51349718486841,40.337084959823606 -79.19447354799547,40.37522890534039 -78.87488487690969,40.408306432104965 -78.55481162634997,40.43630921302683 -78.23433437304543,40.45923019855566 -77.9135337954308,40.477063618455915 -77.59249065333586,40.489804983259496 -77.27128576765485,40.49745108539597 -76.95,40.5 76.95,40.5 " style="stroke:black;fill:none;stroke-width:2;stroke-linecap:round;stroke-linejoin:round;" /><polygon points="-105.30000000000001,121.5 -97.20000000000002,89.1 97.19999999999997,89.1 80.99999999999999,153.9 -113.4,153.9 " style="stroke:black;fill:none;stroke-width:2;stroke-linecap:round;stroke-linejoin:round;" /><polygon points="-137.70000000000002,348.3 -129.60000000000002,315.9 97.19999999999996,315.9 80.99999999999997,380.7 -145.8,380.7 " style="stroke:black;fill:none;stroke-width:2;stroke-linecap:round;stroke-linejoin:round;" /><polygon points="-113.40000000000002,510.29999999999995 -32.40000000000003,429.29999999999995 48.599999999999966,510.29999999999995 -32.40000000000003,591.3 " style="stroke:black;fill:none;stroke-width:2;stroke-linecap:round;stroke-linejoin:round;" /><polygon points="238.94999999999996,530.55 239.27128576765483,530.547451085396 239.5924906533358,530.5398049832595 239.91353379543077,530.5270636184559 240.23433437304539,530.5092301985557 240.5548116263499,530.4863092130269 240.87488487690968,530.4583064321049 241.19447354799541,530.4252289053404 241.51349718486838,530.3870849598236 241.83187547503397,530.3438841980889 242.14952826846027,530.295637495697 242.4663755977553,530.2423569984971 242.78233769829828,530.1840561195698 243.09733502832006,530.1207495358493 243.4112882889274,530.0524531844294 243.72411844406588,529.9791842585516 244.0357467404168,529.9009612032762 244.34609472722317,529.8178037108388 244.6550842760389,529.7297327156936 244.9626376003975,529.6367703892424 245.2686772753943,529.5389401342542 245.57312625717773,529.436266578972 245.87590790234472,529.3287755709147 246.17694598723534,529.2164941703684 246.47616472712156,529.0994506435754 246.7734887952858,528.9776744556177 247.06884334198386,528.8511962629993 247.36215401328815,528.7200479059289 247.65334696980568,528.584262400304 247.94234890526687,528.4438739293995 248.22908706498,528.2989178352622 248.51348926414678,528.1494306098135 248.79548390603446,527.9954498856631 249.07499999999993,527.8370144266348 249.35196717936142,527.6741641180083 249.62631571911263,527.5069399564776 249.8979765534758,527.3353840398314 250.1668812932887,527.1595395563542 250.43296224322106,526.9794507739541 250.69615241881672,526.7951630290192 250.9563855633564,526.6067227150039 251.21359616453768,526.4141772707493 251.46771947096718,526.2175751685414 251.71869150846152,526.0169659019081 251.9664490961524,525.8123999731592 252.21092986239196,525.6039288806737 252.45207226045486,525.391605105934 252.68981558403186,525.1754821003151 252.9240999825127,524.9556142716276 253.15486647605294,524.7320569704219 253.38205697042193,524.5048664760529 253.6056142716276,524.2740999825128 253.82548210031499,524.0398155840319 254.041605105934,523.8020722604549 254.25392888067367,523.5609298623921 254.46239997315925,523.3164490961524 254.66696590190801,523.0686915084615 254.86757516854138,522.8177194709673 255.0641772707493,522.5635961645377 255.2567227150039,522.3063855633565 255.44516302901923,522.0461524188167 255.62945077395406,521.7829622432212 255.80953955635408,521.5168812932887 255.98538403983136,521.2479765534758 256.15693995647763,520.9763157191127 256.32416411800824,520.7019671793614 256.48701442663486,520.425 256.6454498856631,520.1454839060345 256.7994306098135,519.8634892641468 256.94891783526214,519.57908706498 257.0938739293995,519.2923489052669 257.23426240030403,519.0033469698056 257.37004790592897,518.7121540132882 257.5011962629993,518.4188433419839 257.6276744556177,518.1234887952859 257.7494506435754,517.8261647271216 257.86649417036836,517.5269459872354 257.9787755709146,517.2259079023448 258.08626657897196,516.9231262571777 258.1889401342541,516.6186772753944 258.2867703892424,516.3126376003976 258.37973271569354,516.0050842760389 258.4678037108387,515.6960947272232 258.55096120327613,515.3857467404168 258.6291842585517,515.0741184440659 258.70245318442943,514.7612882889274 258.7707495358492,514.4473350283201 258.83405611956977,514.1323376982982 258.8923569984972,513.8163755977554 258.94563749569693,513.4995282684603 258.99388419808884,513.181875475034 259.0370849598235,512.8634971848684 259.07522890534034,512.5444735479955 259.1083064321049,512.2248848769096 259.1363092130268,511.90481162634995 259.1592301985556,511.58433437304546 259.17706361845586,511.26353379543076 259.1898049832594,510.9424906533358 259.1974510853959,510.6212857676548 259.19999999999993,510.29999999999995 259.19999999999993,510.29999999999995 259.1974510853959,509.9787142323451 259.1898049832595,509.65750934666414 259.17706361845586,509.3364662045692 259.15923019855563,509.0156656269545 259.1363092130268,508.69518837365 259.10830643210494,508.37511512309027 259.07522890534034,508.05552645200453 259.0370849598236,507.73650281513153 258.99388419808884,507.41812452496595 258.94563749569693,507.10047173153964 258.8923569984972,506.78362440224464 258.83405611956977,506.4676623017017 258.77074953584923,506.1526649716798 258.70245318442943,505.8387117110725 258.6291842585517,505.5258815559341 258.5509612032762,505.21425325958313 258.4678037108388,504.90390527277674 258.37973271569354,504.59491572396104 258.28677038924246,504.2873623996024 258.1889401342541,503.9813227246056 258.08626657897196,503.6768737428222 257.9787755709146,503.3740920976552 257.86649417036836,503.07305401276454 257.7494506435754,502.77383527287833 257.6276744556177,502.47651120471414 257.5011962629994,502.18115665801605 257.37004790592897,501.88784598671174 257.23426240030403,501.5966530301942 257.0938739293995,501.30765109473305 256.94891783526214,501.0209129350199 256.7994306098135,500.73651073585313 256.6454498856631,500.4545160939655 256.48701442663486,500.17499999999995 256.32416411800824,499.8980328206385 256.15693995647763,499.6236842808873 255.9853840398314,499.35202344652413 255.80953955635408,499.0831187067113 255.62945077395406,498.8170377567789 255.44516302901926,498.5538475811832 255.25672271500392,498.2936144366435 255.06417727074933,498.03640383546224 254.8675751685414,497.78228052903273 254.66696590190804,497.5313084915384 254.46239997315925,497.2835509038476 254.2539288806737,497.03907013760795 254.041605105934,496.79792773954506 253.82548210031499,496.560184415968 253.60561427162762,496.3259000174872 253.38205697042193,496.095133523947 253.15486647605297,495.867943029578 252.92409998251273,495.6443857283723 252.6898155840319,495.42451789968493 252.45207226045486,495.2083948940659 252.210929862392,494.99607111932625 251.9664490961524,494.78760002684066 251.71869150846155,494.5830340980919 251.4677194709672,494.3824248314585 251.2135961645377,494.1858227292506 250.95638556335643,493.99327728499605 250.69615241881672,493.80483697098066 250.43296224322108,493.62054922604585 250.1668812932887,493.44046044364586 249.89797655347581,493.26461596016856 249.62631571911263,493.0930600435223 249.35196717936145,492.9258358819917 249.07499999999996,492.7629855733651 248.79548390603446,492.6045501143368 248.51348926414678,492.45056939018644 248.22908706498,492.30108216473775 247.94234890526687,492.15612607060046 247.65334696980568,492.0157375996959 247.36215401328815,491.879952094071 247.0688433419839,491.74880373700057 246.7734887952858,491.6223255443822 246.4761647271216,491.5005493564245 246.17694598723534,491.38350582963153 245.87590790234478,491.27122442908535 245.57312625717773,491.1637334210279 245.26867727539434,491.06105986574585 244.96263760039753,490.9632296107575 244.6550842760389,490.8702672843064 244.34609472722317,490.78219628916116 244.0357467404168,490.6990387967238 243.72411844406588,490.62081574144827 243.4112882889274,490.54754681557046 243.09733502832006,490.4792504641507 242.78233769829828,490.4159438804302 242.4663755977553,490.35764300150277 242.14952826846027,490.304362504303 241.83187547503397,490.2561158019111 241.51349718486838,490.21291504017637 241.19447354799541,490.1747710946596 240.87488487690968,490.141693567895 240.55481162634993,490.11369078697317 240.23433437304539,490.0907698014443 239.91353379543077,490.0729363815441 239.59249065333583,490.0601950167405 239.27128576765483,490.052548914604 238.94999999999996,490.04999999999995 117.44999999999996,490.04999999999995 117.12871423234512,490.052548914604 116.8075093466641,490.0601950167405 116.48646620456918,490.0729363815441 116.16566562695454,490.0907698014443 115.84518837365,490.11369078697317 115.52511512309026,490.141693567895 115.2055264520045,490.1747710946596 114.88650281513155,490.21291504017637 114.56812452496595,490.2561158019111 114.25047173153963,490.304362504303 113.93362440224463,490.35764300150277 113.61766230170166,490.4159438804302 113.30266497167986,490.4792504641507 112.98871171107251,490.54754681557046 112.67588155593407,490.62081574144827 112.36425325958311,490.6990387967238 112.05390527277676,490.78219628916116 111.74491572396101,490.8702672843064 111.4373623996024,490.9632296107575 111.1313227246056,491.06105986574585 110.82687374282217,491.1637334210279 110.52409209765517,491.27122442908535 110.22305401276456,491.38350582963153 109.92383527287834,491.5005493564245 109.62651120471412,491.6223255443822 109.33115665801604,491.74880373700057 109.03784598671177,491.879952094071 108.74665303019424,492.0157375996959 108.45765109473304,492.15612607060046 108.1709129350199,492.30108216473775 107.88651073585315,492.45056939018644 107.60451609396547,492.6045501143368 107.32499999999996,492.7629855733651 107.0480328206385,492.9258358819917 106.7736842808873,493.0930600435223 106.5020234465241,493.26461596016856 106.23311870671124,493.44046044364586 105.96703775677885,493.62054922604585 105.70384758118321,493.80483697098066 105.4436144366435,493.99327728499605 105.18640383546222,494.1858227292506 104.93228052903271,494.38242483145854 104.68130849153839,494.5830340980919 104.43355090384755,494.78760002684066 104.18907013760794,494.99607111932625 103.94792773954507,495.2083948940659 103.71018441596804,495.42451789968493 103.47590001748719,495.6443857283723 103.24513352394696,495.867943029578 103.01794302957799,496.095133523947 102.7943857283723,496.3259000174872 102.57451789968492,496.560184415968 102.35839489406594,496.79792773954506 102.14607111932624,497.03907013760795 101.93760002684066,497.2835509038476 101.73303409809189,497.5313084915384 101.53242483145851,497.7822805290327 101.33582272925061,498.03640383546224 101.14327728499602,498.2936144366435 100.95483697098067,498.5538475811832 100.77054922604586,498.81703775677886 100.59046044364585,499.0831187067113 100.41461596016855,499.35202344652413 100.2430600435223,499.6236842808873 100.07583588199168,499.8980328206385 99.91298557336508,500.17499999999995 99.75455011433682,500.4545160939655 99.60056939018642,500.73651073585313 99.45108216473777,501.0209129350199 99.30612607060041,501.30765109473305 99.16573759969589,501.5966530301942 99.02995209407096,501.88784598671174 98.89880373700056,502.18115665801605 98.7723255443822,502.47651120471414 98.6505493564245,502.77383527287833 98.53350582963157,503.07305401276454 98.42122442908533,503.3740920976552 98.31373342102793,503.6768737428222 98.21105986574581,503.9813227246056 98.11322961075746,504.2873623996024 98.02026728430639,504.59491572396104 97.93219628916114,504.90390527277674 97.84903879672375,505.21425325958313 97.77081574144825,505.5258815559341 97.69754681557048,505.8387117110725 97.6292504641507,506.1526649716798 97.56594388043015,506.46766230170164 97.50764300150274,506.78362440224464 97.45436250430299,507.10047173153964 97.40611580191108,507.41812452496595 97.36291504017636,507.73650281513153 97.32477109465957,508.05552645200453 97.291693567895,508.37511512309027 97.26369078697313,508.69518837365 97.24076980144432,509.01566562695456 97.22293638154406,509.3364662045692 97.21019501674047,509.65750934666414 97.20254891460401,509.9787142323451 97.19999999999996,510.29999999999995 97.19999999999996,510.29999999999995 97.20254891460401,510.6212857676548 97.21019501674047,510.9424906533358 97.22293638154406,511.26353379543076 97.24076980144432,511.58433437304546 97.26369078697313,511.90481162634995 97.291693567895,512.2248848769096 97.32477109465957,512.5444735479955 97.36291504017636,512.8634971848684 97.40611580191107,513.181875475034 97.45436250430298,513.4995282684603 97.50764300150274,513.8163755977554 97.56594388043015,514.1323376982982 97.6292504641507,514.4473350283201 97.69754681557048,514.7612882889274 97.77081574144825,515.0741184440659 97.84903879672375,515.3857467404168 97.93219628916114,515.6960947272232 98.02026728430639,516.0050842760389 98.11322961075746,516.3126376003976 98.21105986574581,516.6186772753944 98.31373342102793,516.9231262571777 98.42122442908533,517.2259079023448 98.53350582963157,517.5269459872354 98.6505493564245,517.8261647271216 98.7723255443822,518.1234887952859 98.89880373700056,518.4188433419839 99.02995209407096,518.7121540132882 99.16573759969589,519.0033469698056 99.30612607060041,519.2923489052669 99.45108216473777,519.57908706498 99.60056939018642,519.8634892641468 99.75455011433682,520.1454839060345 99.91298557336509,520.425 100.07583588199168,520.7019671793614 100.2430600435223,520.9763157191127 100.41461596016855,521.2479765534758 100.59046044364584,521.5168812932887 100.77054922604584,521.7829622432212 100.95483697098067,522.0461524188167 101.14327728499602,522.3063855633565 101.33582272925061,522.5635961645377 101.53242483145851,522.8177194709673 101.73303409809189,523.0686915084615 101.93760002684066,523.3164490961525 102.14607111932624,523.5609298623921 102.35839489406592,523.8020722604549 102.57451789968492,524.0398155840319 102.7943857283723,524.2740999825128 103.017943029578,524.5048664760529 103.24513352394696,524.732056970422 103.47590001748719,524.9556142716277 103.71018441596803,525.1754821003151 103.94792773954507,525.391605105934 104.18907013760794,525.6039288806737 104.43355090384753,525.8123999731592 104.68130849153839,526.0169659019081 104.93228052903271,526.2175751685414 105.18640383546222,526.4141772707493 105.44361443664349,526.6067227150039 105.7038475811832,526.7951630290192 105.96703775677885,526.9794507739541 106.23311870671122,527.1595395563542 106.5020234465241,527.3353840398314 106.77368428088728,527.5069399564776 107.0480328206385,527.6741641180083 107.32499999999996,527.8370144266348 107.60451609396547,527.9954498856631 107.88651073585314,528.1494306098135 108.1709129350199,528.2989178352622 108.45765109473304,528.4438739293996 108.74665303019424,528.584262400304 109.03784598671177,528.7200479059289 109.33115665801603,528.8511962629993 109.62651120471412,528.9776744556177 109.92383527287832,529.0994506435754 110.22305401276456,529.2164941703684 110.52409209765517,529.3287755709147 110.82687374282217,529.436266578972 111.1313227246056,529.5389401342542 111.43736239960239,529.6367703892424 111.74491572396101,529.7297327156936 112.05390527277675,529.8178037108388 112.36425325958311,529.9009612032762 112.67588155593407,529.9791842585516 112.98871171107251,530.0524531844294 113.30266497167986,530.1207495358493 113.61766230170166,530.1840561195698 113.93362440224463,530.2423569984971 114.25047173153962,530.295637495697 114.56812452496594,530.3438841980889 114.88650281513155,530.3870849598236 115.20552645200449,530.4252289053404 115.52511512309027,530.4583064321049 115.84518837364999,530.4863092130269 116.16566562695454,530.5092301985557 116.48646620456917,530.5270636184559 116.8075093466641,530.5398049832595 117.12871423234512,530.547451085396 117.44999999999996,530.55 238.94999999999996,530.55 " style="stroke:black;fill:none;stroke-width:2;stroke-linecap:round;stroke-linejoin:round;" /><path d="M 0.0,40.5 L -4.463837582892102e-15,64.8 L -7.625095819546128e-15,81.0" style="stroke:black;fill:none;stroke-width:2;stroke-linecap:round;stroke-linejoin:round;" /><path d="M -8.606050635848877e-15 87.1 L -2.4300000000000077 81.0 L 2.4299999999999917 81.0 Z" style="stroke:black;fill:black;stroke-linecap:butt;stroke-linejoin:miter;" /><path d="M -16.200000000000006,153.9 L -16.20000000000001,178.2 L -16.200000000000014,194.39999999999998" style="stroke:black;fill:none;stroke-width:2;stroke-linecap:round;stroke-linejoin:round;" /><path d="M -16.200000000000014 200.5 L -18.630000000000013 194.39999999999998 L -13.770000000000014 194.39999999999998 Z" style="stroke:black;fill:black;stroke-linecap:butt;stroke-linejoin:miter;" /><path d="M -113.4,234.89999999999998 L -113.4,202.5 L 80.99999999999999,202.5 L 80.99999999999999,267.3 L -113.4,267.3 L -113.4,234.89999999999998" style="stroke:black;fill:none;stroke-width:2;stroke-linecap:round;stroke-linejoin:round;" /><path d="M -16.200000000000014,267.3 L -16.200000000000017,291.59999999999997 L -16.20000000000002,307.8" style="stroke:black;fill:none;stroke-width:2;stroke-linecap:round;stroke-linejoin:round;" /><path d="M -16.20000000000002 313.9 L -18.63000000000002 307.79999999999995 L -13.770000000000021 307.79999999999995 Z" style="stroke:black;fill:black;stroke-linecap:butt;stroke-linejoin:miter;" /><path d="M -32.40000000000002,380.7 L -32.40000000000003,405.0 L -32.40000000000003,421.2" style="stroke:black;fill:none;stroke-width:2;stroke-linecap:round;stroke-linejoin:round;" /><path d="M -32.40000000000003 427.29999999999995 L -34.83000000000003 421.19999999999993 L -29.970000000000027 421.19999999999993 Z" style="stroke:black;fill:black;stroke-linecap:butt;stroke-linejoin:miter;" /><path d="M 48.599999999999966,510.29999999999995 L 72.89999999999996,510.29999999999995 L 89.09999999999997,510.29999999999995" style="stroke:black;fill:none;stroke-width:2;stroke-linecap:round;stroke-linejoin:round;" /><path d="M 95.19999999999996 510.29999999999995 L 89.09999999999997 512.7299999999999 L 89.09999999999997 507.86999999999995 Z" style="stroke:black;fill:black;stroke-linecap:butt;stroke-linejoin:miter;" /><path d="M -32.40000000000003,591.3 L -32.400000000000034,615.6 L -32.400000000000034,631.8" style="stroke:black;fill:none;stroke-width:2;stroke-linecap:round;stroke-linejoin:round;" /><path d="M -32.400000000000034 637.9 L -34.830000000000034 631.8000000000001 L -29.970000000000034 631.8000000000001 Z" style="stroke:black;fill:black;stroke-linecap:butt;stroke-linejoin:miter;" /><path d="M -194.40000000000003,672.3 L -194.40000000000003,639.9 L 129.59999999999997,639.9 L 129.59999999999997,704.6999999999999 L -194.40000000000003,704.6999999999999 L -194.40000000000003,672.3" style="stroke:black;fill:none;stroke-width:2;stroke-linecap:round;stroke-linejoin:round;" /><text x="0.0" y="12.550000000000002" fill="black" font-size="14" font-family="sans-serif" text-anchor="middle" transform="rotate(0 0.0 18.150000000000002)"><tspan x="0.0" dy="11.200000000000001">Data send from HIVEMQ</tspan></text><text x="-8.100000000000009" y="105.39999999999998" fill="black" font-size="14" font-family="sans-serif" text-anchor="middle" transform="rotate(0 -8.100000000000009 119.39999999999999)"><tspan x="-8.100000000000009" dy="14">receive into on_message</tspan><tspan x="-8.100000000000009" dy="14">in comm_mqtt.MQTTConn</tspan></text><text x="-16.200000000000014" y="218.79999999999998" fill="black" font-size="14" font-family="sans-serif" text-anchor="middle" transform="rotate(0 -16.200000000000014 232.79999999999998)"><tspan x="-16.200000000000014" dy="14">process input message</tspan><tspan x="-16.200000000000014" dy="14">into a sensor status state</tspan></text><text x="-24.300000000000022" y="332.2" fill="black" font-size="14" font-family="sans-serif" text-anchor="middle" transform="rotate(0 -24.300000000000022 346.2)"><tspan x="-24.300000000000022" dy="14">send sensor status to</tspan><tspan x="-24.300000000000022" dy="14">main_gui.SensorUI.change_status</tspan></text><text x="-28.18800000000003" y="593.412" fill="black" font-size="14" font-family="sans-serif" text-anchor="start" transform="rotate(0 -28.18800000000003 593.412)"><tspan x="-28.18800000000003" dy="11.200000000000001">Yes</tspan></text><text x="52.81199999999996" y="492.788" fill="black" font-size="14" font-family="sans-serif" text-anchor="start" transform="rotate(0 52.81199999999996 503.988)"><tspan x="52.81199999999996" dy="11.200000000000001">No</tspan></text><text x="-32.40000000000003" y="487.20000000000005" fill="black" font-size="14" font-family="sans-serif" text-anchor="middle" transform="rotate(0 -32.40000000000003 508.2)"><tspan x="-32.40000000000003" dy="14">Is the name from</tspan><tspan x="-32.40000000000003" dy="14">the data found in</tspan><tspan x="-32.40000000000003" dy="14">the NAMES list</tspan></text><text x="178.19999999999996" y="502.59999999999997" fill="black" font-size="14" font-family="sans-serif" text-anchor="middle" transform="rotate(0 178.19999999999996 508.2)"><tspan x="178.19999999999996" dy="11.200000000000001">Exit with no change</tspan></text><text x="-32.400000000000034" y="656.2" fill="black" font-size="14" font-family="sans-serif" text-anchor="middle" transform="rotate(0 -32.400000000000034 670.2)"><tspan x="-32.400000000000034" dy="14">call main_gui.StatusButton.toggle_color</tspan><tspan x="-32.400000000000034" dy="14">and set the propre color the indicator</tspan></text></svg>